<svg preserveAspectRatio="none" data-bbox="155.643 389.05 768.785 301.918" viewBox="155.643 389.05 768.785 301.918" xmlns="http://www.w3.org/2000/svg" data-type="shape" role="presentation" aria-hidden="true">
    <g fill="#694c3d">
        <path d="M571.2 654c-23.8-46.8-68.9-77.8-117.3-95.1-27.5-9.8-56.2-15.8-85.1-19.4-29.2-3.7-59.4-5.2-86.4-17.9-27.7-13.1-50.7-34.8-72-56.4l-3 5.1c27.5 7.7 56.7 10.3 83.1 21.6 21.6 9.2 42.3 25.1 49.9 48.1.9 2.7 5.1 1.6 4.3-1.2-7.2-23.8-27-40.6-48.9-50.8-27.4-12.7-57.9-15.9-86.8-23.6-2.9-.8-5.2 3-3 5.1 19 18.8 38 37.9 61.1 51.8 24.3 14.6 51.3 19.9 79.1 23.4 56.7 7 114.1 16.3 162.3 49 23.9 16.2 44.5 37.5 58.2 63.1 1.5 2.8 6 .2 4.5-2.8z"></path>
        <path d="M487 574.8c-30.4-3.9-62.5 3.4-90.5 15.3-28.4 12.1-54.3 30.3-75 53.2-11.7 13-21.8 27.5-29.7 43.2-1.2 2.4 1.4 5.7 4 4 18.2-12.5 39.5-20.4 56-35.5 14.3-13.1 26.4-31.5 30.2-50.7.7-3.5-4.3-4.9-5.4-1.5-6.2 18.9-14.9 35.6-29.9 49.1-15.9 14.3-36.3 21.8-53.8 33.6l4 4c27.8-53.8 80.4-92.9 139.5-105.7 16.8-3.6 33.5-4.8 50.7-5.3 2.3-.2 2.1-3.4-.1-3.7z"></path>
        <path d="M485.1 572.8c-43.7-31.2-81.1-80.4-81-136.2 0-15.3 3.2-30.5 9.8-44.3h-3.8c18.6 34.4 20.5 76.1 8 112.8-1.1 3.2 3.9 4.5 5 1.4 13.7-38.2 9.3-80.6-9.3-116.4-.7-1.4-3-1.4-3.8 0-26.2 51.9-2.4 114.6 34.8 154.4 11.3 12.1 24.3 22.4 38.6 30.8 1.9 1 3.2-1.4 1.7-2.5z"></path>
        <path d="M394.2 545.6c-57.9-4.8-107.7 31.2-163 41.3-16.4 3-33 3.4-49.4 0-3.2-.7-4.6 4.2-1.4 5 57.3 13.2 110.9-22.6 164.5-36.2 16.2-4.1 32.6-6.2 49.2-4.8 3.5.3 3.5-5 .1-5.3z"></path>
        <path d="M182.2 587.8c-.8-4.4-2.9-8.5-5.8-11.9-1.5-1.7-3.3-3-5.2-4.1-2.3-1.3-5-2.6-7.7-2.3-5.5.6-8.3 6.3-7.8 11.4.5 4.7 3.1 9.4 7.4 11.7 4.7 2.5 11 2.3 15.3-1 1.3-1 2-2.7 1.1-4.2-.8-1.3-2.9-2.1-4.2-1.1-.7.5-1.3.9-2.1 1.3.4-.2 0 0-.1 0-.2.1-.4.1-.6.2-.5.1-1 .3-1.5.3.6-.1-.6 0-.7 0h-1.2c-.1 0-.6-.1-.1 0-.2 0-.4-.1-.6-.1-.4-.1-.9-.2-1.3-.4-.1 0-.6-.3-.3-.1.3.1-.3-.1-.3-.2-.4-.2-.7-.4-1-.6-.4-.3.3.3-.1-.1-.2-.1-.3-.3-.4-.4-.3-.3-.6-.6-.9-1-.4-.5-.1-.2-.1-.1-.1-.2-.2-.3-.3-.5-.2-.3-.4-.7-.6-1 .2.4 0 0 0-.1-.1-.2-.1-.4-.2-.6-.2-.5-.3-1-.4-1.5 0-.1 0-.6 0 0v-1.8c0-.2 0-.4.1-.6 0 .2-.1.6 0 0 .1-.4.2-.8.4-1.3.1-.5-.3.4 0 0 .1-.1.1-.3.2-.4.1-.2.2-.3.3-.5-.3.5-.1.1 0 0l.4-.4c-.4.4-.2.2 0 0 .5-.3.1 0-.1 0 .1 0 .9-.2.3-.1.1 0 .7.1.1 0 .2 0 .5.1.7.2.4.1.9.3 1.3.4.2.1 1.2.5.6.2l1.2.6c.7.4 1.4.8 2.1 1.3.2.1.3.2.5.4.4.3-.4-.3 0 0 .2.2.5.4.7.5.9.7-.2-.2.4.3 1.4 1.2 2.8 2.6 3.7 3.9 1.1 1.6 1.9 3.1 2.4 4.9.4 1.2 1.7 2 2.9 1.7 1.2-.3 1.8-1.6 1.5-2.9z"></path>
        <path d="M161.5 577.3c-.2 1.3-.3 2.7.2 4 .5 1.3 1.2 2.5 2.2 3.5.8.9 1.8 1.6 2.8 2.2 1.4.7 2.7 1 4.2 1.2-.3 0-.6-.1-.9-.1.5.1 1 .2 1.6.3h.8c.5-.1 1.1-.1 1.6-.2s1.1-.4 1.6-.6c1.1-.5 2-2.1 1.9-3.3-.1-1.2-.3-2.1-.9-3.2-.4-.7-.9-1.4-1.6-1.9-1.5-1.2-3.3-2.1-5.3-1.8-1 .1-1.9.3-2.7 1.1-.7.7-1.1 1.7-1.1 2.7.1 1.3.2 2.8.7 4 .7 1.9 1.9 3.4 3.8 4.2 2 .8 4.1.4 5.6-1.1 1.1-1.1 1.8-2.7 1.8-4.2 0-2.6-2-4.7-4.6-4.6-1 0-1.9.4-2.6 1.1-.6.6-1.1 1.7-1.1 2.6.1 2 1.6 3.7 3.7 3.7h.2c-.3 0-.7-.1-1-.1.1 0 .1 0 .2.1-.3-.1-.6-.2-.9-.4.1 0 .1.1.2.1-.2-.2-.5-.4-.7-.6l.1.1c-.2-.2-.4-.5-.6-.7 0 .1.1.1.1.2-.1-.3-.2-.6-.4-.9 0 .1.1.2.1.2 0-.3-.1-.7-.1-1v.4c0-.3.1-.7.1-1 0 .2-.1.4-.2.6.1-.3.2-.6.4-.9l-.3.6c.2-.3.4-.5.6-.8l-.4.4c.3-.2.5-.4.8-.6-.1.1-.2.1-.3.2.3-.1.6-.2.9-.4-.1 0-.2.1-.3.1.3 0 .7-.1 1-.1h-.4c.3 0 .7.1 1 .1-.1 0-.2-.1-.4-.1.3.1.6.3.9.4-.2-.1-.3-.2-.5-.3.3.2.5.4.8.6-.2-.2-.4-.3-.6-.6.2.3.4.5.6.8-.2-.3-.3-.5-.5-.8.1.3.3.6.4.9-.2-.5-.3-1.1-.4-1.7 0 .3.1.7.1 1-.1-.5-.1-1-.1-1.5l-3.8 3.8h.8c-.3 0-.7-.1-1-.1.3 0 .7.1 1 .3-.3-.1-.6-.3-.9-.4.3.1.5.3.8.5-.3-.2-.5-.4-.8-.6.2.2.5.4.7.6-.2-.3-.4-.5-.6-.8.2.2.3.5.5.8-.1-.3-.3-.6-.4-.9.1.3.2.6.2.9 0-.3-.1-.7-.1-1v.1c.6-1.1 1.3-2.2 1.9-3.3h-.1c.3-.1.6-.3.9-.4-.6.2-1.2.5-1.9.6.3 0 .7-.1 1-.1-.5.1-1 .1-1.4.3.3 0 .6-.1.9-.1h-1.2c.3 0 .6.1.9.1-.7-.1-1.3-.3-1.9-.5.3.1.5.2.8.3-.6-.3-1.2-.6-1.7-1 .2.2.4.3.6.5-.5-.4-.9-.8-1.3-1.3.2.2.3.4.5.6-.4-.6-.7-1.2-1-1.8.1.2.2.5.3.7-.2-.4-.3-.9-.4-1.3-.1-.5-.5-1.1-1-1.4-.4-.3-1-.6-1.6-.6-.5 0-.9.1-1.3.4-.8-.1-1.5.6-1.5 1.2z"></path>
        <path d="M272.6 578.9c-18.5 5.4-39.3 15-49.4 32.3-1.5 2.6-2.4 5.9-5.2 7.4-2.4 1.3-5.8 1.4-8.4 2.1-4.6 1.2-9.4 3.2-12.3 7-4.9 6.3-3.4 18 6 18.7 12.4.9 19.4-14.6 20.7-24.6.5-3.6-5.2-3.6-5.7 0-.7 6.1-3.5 12.8-8.3 16.8-2.1 1.7-5.5 3.5-8.2 1.9-2.1-1.3-2.3-4.1-1.8-6.3 1.3-5.4 7.3-7.4 12.1-8.5 5.2-1.2 10.1-1.7 13-6.7 2.8-4.7 5-9.2 8.7-13.4 3.5-3.8 7.3-7.1 11.6-10 8.7-6 18.5-10.1 27.8-15 1-.5.4-2-.6-1.7z"></path>
        <path d="M215.3 620.7c-3.1.2-6.2.5-9.1 1.7-1.7.7-3.3 1.6-4.5 2.9-1.1 1.1-1.9 2.6-2.4 4.1-.9 2.7-.4 6.1 1.3 8.4 1.1 1.5 2.6 2.7 4.4 3.2 2.1.5 4.2.2 6.1-.8 3.3-1.7 5.3-5.7 6.1-9.1l-2.9 2.9c.1 0 .3-.1.4-.1-.4.1-.7.1-1.1.2h.6c-.4-.1-.7-.1-1.1-.2.2 0 .4.1.6.2-.3-.1-.7-.3-1-.4.2.1.4.2.6.4-.3-.2-.6-.4-.9-.7l.6.6c-.2-.3-.4-.6-.7-.9.2.3.4.6.6 1-.1-.3-.3-.7-.4-1 .1.4.2.7.3 1.1-.1-.4-.1-.7-.2-1.1v1c.1-.4.1-.7.2-1.1 0 .2-.1.5-.2.7.1-.3.3-.7.4-1-.1.2-.2.3-.3.5.2-.3.4-.6.7-.9-.1.2-.3.3-.4.4.3-.2.6-.4.9-.7l-.6.3c.3-.1.7-.3 1-.4-.2.1-.3.1-.5.1.4-.1.7-.1 1.1-.2h-.6c.4.1.7.1 1.1.2-.2 0-.4-.1-.6-.2.3.1.7.3 1 .4-.3-.1-.5-.3-.8-.5.3.2.6.4.9.7-.2-.2-.5-.4-.7-.7.2.3.4.6.7.9l-.6-.9c.1.3.3.7.4 1-.1-.3-.2-.7-.3-1 .1.4.1.7.2 1.1 0-.3-.1-.7 0-1 0 .4-.1.7-.1 1.1 0-.2.1-.4.2-.6-.1.3-.3.7-.4 1 .1-.2.2-.4.3-.5-.2.3-.4.6-.7.8.1-.1.2-.3.4-.4-.3.2-.6.4-.8.6l.1-.1c.9-.7 1.6-1.4 1.9-2.5.3-1 .1-2.3-.4-3.2-1.2-1.8-3.7-2.7-5.7-1.5-2.6 1.7-3.8 4.8-2.9 7.8.7 2.6 2.7 4.8 5.3 5.6 2.9.9 6.2-.5 7.6-3.1 1.3-2.4 1-5.3-.3-7.6-1.6-2.8-4.8-4.4-7.9-3.5-1.4.4-2.6 1.5-2.9 2.9-.2 1-.5 1.9-.9 2.8.1-.3.3-.7.4-1-.4.8-.8 1.6-1.4 2.4.2-.3.4-.6.7-.8l-1.2 1.2c.3-.2.6-.4.8-.6-.3.2-.6.4-1 .6.3-.1.7-.3 1-.4-.4.1-.7.3-1.1.3.4 0 .7-.1 1.1-.1-.4 0-.8.1-1.1 0 .4 0 .7.1 1.1.1-.3 0-.6-.1-.9-.2.3.1.6.3 1 .4-.2-.1-.4-.2-.5-.3-.1 0-.1-.1-.2-.1-.3-.1.7.6.5.4l-.4-.4c-.3-.3.4.5.4.5 0-.1-.1-.2-.2-.3-.1-.2-.2-.3-.3-.5-.2-.3-.1-.6.2.5 0-.1-.1-.2-.1-.3-.1-.4-.2-.8-.3-1.3 0 .3.1.7.1 1-.1-.6-.1-1.1 0-1.6v-.4c0-.6-.2 1 0 .4.1-.2.1-.5.2-.7.1-.6-.4.8-.1.3.1-.1.1-.3.2-.4.1-.1.1-.2.2-.3.2-.3-.6.7-.2.3.3-.3.5-.6.8-.9.1-.1.2-.2.4-.3.2-.2-.7.5 0 .1l.9-.6c.1-.1.3-.2.4-.2.7-.3-.3.1 0 0 .7-.3 1.4-.5 2.1-.7.7-.2 1.5-.3 2.2-.5.4-.1.7-.1 1.1-.2.2 0 .4-.1.6-.1.6-.1-.6.1 0 0 .8-.1 1.5-.3 2.1-.9.5-.5.9-1.4.9-2.1-.6-1.5-1.9-3.1-3.5-3z"></path>
        <path d="M432.4 555.7c-24.3-10.7-45.8-29.7-60-52-3.5-5.4-6.5-11.1-9.1-17-2.7-6.2-4.1-13.4-7.7-19.1-3.4-5.5-9-8-14.4-11.1-3.9-2.3-12.3-10.5-5.4-14.4h-2.6c7.9 5.8 13.1 14.9 14.2 24.6.5 4 6.1 3.3 5.5-.7-1.6-11.6-7.9-21.3-17.1-28.3-.7-.5-1.8-.4-2.6 0-8.2 4.4-5 15.7.9 20.7 4.3 3.6 9.9 5.3 14 9.2 4.7 4.5 5.9 12 8.3 17.9 8.8 21.6 23.1 40.5 41.4 54.8 10.2 7.9 21.6 13.6 33.6 18.1 1.4.2 2.4-2.1 1-2.7z"></path>
        <path d="M332.8 445.5c1.1 3 2.5 5.9 4.2 8.6.9 1.4 1.9 2.8 3 4.1.5.6 1 1.1 1.4 1.7-.2-.3-.4-.6-.2-.1.2.4.5.8.8 1.1.3.3.6.5.8.8 1.6 1.5 4.3 1.7 5.9 0 .7-.8 1.3-1.8 1.2-2.9 0-1-.4-2.3-1.2-2.9-.4-.4-.9-.7-1.3-1.1-.7-.5-1.4-.8-2.2-1.1.6.3 1.1.6 1.7 1-1.9-1.6-3.7-3.4-5.3-5.4-.1-.1-.4-.5-.1-.1l-.1-.1c-.2-.3-.4-.5-.6-.8-.4-.5-.7-1-1-1.6-.7-1.1-1.3-2.2-1.8-3.4-.6-1.3-2.3-1.7-3.5-1.1-1.2.5-2.1 2-1.7 3.3z"></path>
        <path d="M513.4 656.6c25.1-47.1 72.4-77.9 122.4-93.5 28.2-8.9 57.5-13.7 86.8-17.2 27.9-3.3 56-6.7 81.3-19.7 27.1-13.9 48.7-35.6 70.1-56.8 2.2-2.2 0-5.9-3-5.1-28.9 7.8-59.4 10.9-86.8 23.6-21.9 10.2-41.7 27.1-48.9 50.8-.8 2.8 3.4 3.9 4.3 1.2 7.7-23 28.3-38.9 49.9-48.1 26.4-11.3 55.6-13.8 83.1-21.6l-3-5.1c-18.9 19.2-39.1 38.3-62.8 51.6-26.1 14.6-55.1 18.1-84.3 21.4-55.7 6.3-112.8 19.4-158.9 53.1-22.7 16.6-42 37.6-54.8 62.8-1.5 3 3 5.6 4.6 2.6z"></path>
        <path d="M593 578.4c30.4.8 59.9 5.1 88 17.2 27.7 11.9 52.9 29.6 73.2 52 11.5 12.6 21.1 26.7 29 41.8l4-4c-17.5-11.8-37.9-19.3-53.8-33.6-15-13.5-23.7-30.2-29.9-49.1-1.1-3.4-6.1-2-5.4 1.5 3.8 19.2 15.9 37.6 30.2 50.7 16.5 15.1 37.7 23 56 35.5 2.6 1.8 5.2-1.6 4-4-28-55.4-82.5-95.6-142.9-108.6-16.9-3.6-35.1-5.3-52.3-3.1-2.3.4-2.4 3.6-.1 3.7z"></path>
        <path d="M596.4 575.3c48.4-28.5 85.7-83.3 84.4-140.8-.4-15.5-4-30.6-11-44.4-.7-1.4-3-1.4-3.8 0-18.5 35.8-23 78.2-9.3 116.4 1.1 3.1 6.1 1.8 5-1.4-12.5-36.7-10.5-78.4 8-112.8h-3.8c24.6 50.9.3 110.2-35.4 148.9-10.8 11.7-22.8 22.3-35.8 31.5-1.3 1.2 0 3.6 1.7 2.6z"></path>
        <path d="M685.8 551c59.2-5 110.3 33.3 167.3 42 15.5 2.3 31.2 2.6 46.5-.9 3.3-.7 1.9-5.6-1.4-5-58.7 11.9-110.7-24.6-165.7-37.4-15.3-3.5-31-5.3-46.7-4-3.4.2-3.4 5.5 0 5.3z"></path>
        <path d="M902.4 589.1c1-3.2 2.7-5.7 5.1-7.8.3-.3.6-.5.9-.8.1-.1.6-.5.3-.2-.4.3.5-.4.7-.5.1-.1.6-.4.3-.2s.2-.1.3-.2c.4-.3.8-.5 1.1-.8.7-.4 1.4-.8 2.2-1.2.6-.3.1-.1 0 0 .2-.1.4-.2.6-.2.5-.2 1.1-.4 1.6-.5.2-.1.5-.1.7-.2h.2c.1-.1.7.4 0-.1.2.1.3.2.5.3-.1-.1-.5-.5 0 0l.4.4c-.3-.4-.1-.1.1.1l.2.4c.1.4.3.7.3 1.1 0 .2.1.4.1.6-.1-.6 0-.2 0 0 0 .5.1 1 0 1.5v.6c0-.1.1-.6 0 0l-.3 1.2c-.1.4-.2.8-.4 1.1.1-.2.2-.4-.1.1-.1.2-.2.4-.4.6-.1.2-.2.3-.3.5-.3.4.3-.3-.1.1-.3.3-.5.6-.8.9l-.4.4c-.1 0-.5.4-.3.2.3-.2-.2.1-.3.2-.2.1-.4.3-.7.4-1.3.7-2.8.9-4.6.9-.1 0-.6-.1-.1 0-.3 0-.5-.1-.8-.1-.5-.1-.9-.2-1.3-.4-.6-.2-.2-.1-.1 0-.3-.1-.6-.3-.8-.4-.4-.3-.9-.5-1.3-.8-1.3-1-3.4-.2-4.2 1.1-.9 1.6-.2 3.2 1.1 4.2 3.7 2.8 9.1 3.5 13.4 1.9 4.5-1.7 7.9-5.7 8.9-10.5 1-4.6-.2-10.6-4.8-12.7-3.1-1.4-6.1-.5-9 .9-2 .9-3.9 2.2-5.5 3.7-3.6 3.3-6 8.2-6.9 13-.2 1.3.3 2.6 1.7 2.9 1.1.3 2.4-.5 2.8-1.7z"></path>
        <path d="M913.4 577.3c-.1.5-.2.9-.4 1.3.1-.2.2-.5.3-.7-.3.6-.6 1.3-1 1.8.2-.2.3-.4.5-.6-.4.5-.8.9-1.3 1.3.2-.2.4-.3.6-.5-.5.4-1.1.7-1.7 1 .3-.1.5-.2.8-.3-.6.3-1.3.4-1.9.5.3 0 .6-.1.9-.1-.4 0-.8.1-1.2 0 .3 0 .6.1.9.1-.4-.2-.9-.2-1.4-.3.3 0 .7.1 1 .1-.7-.1-1.3-.3-1.9-.6.3.1.6.3.9.4h-.1c.6 1.1 1.3 2.2 1.9 3.3v-.1c0 .3-.1.7-.1 1 0-.3.1-.6.2-.9-.1.3-.3.6-.4.9.1-.3.3-.5.5-.8-.2.3-.4.5-.6.8.2-.2.4-.4.7-.6-.3.2-.5.4-.8.6.2-.2.5-.3.8-.5-.3.1-.6.3-.9.4.3-.1.7-.2 1-.3-.3 0-.7.1-1 .1h.8l-3.8-3.8c0 .5-.1 1-.1 1.5 0-.3.1-.7.1-1-.1.6-.2 1.1-.4 1.7.1-.3.3-.6.4-.9-.1.3-.3.6-.5.8.2-.3.4-.5.6-.8-.2.2-.3.4-.6.6.3-.2.5-.4.8-.6-.2.1-.3.2-.5.3.3-.1.6-.3.9-.4-.1 0-.2.1-.4.1.3 0 .7-.1 1-.1h-.4c.3 0 .7.1 1 .1-.1 0-.2 0-.3-.1.3.1.6.2.9.4-.1-.1-.2-.1-.3-.2.3.2.5.4.8.6-.2-.1-.3-.3-.4-.4.2.3.4.5.6.8l-.3-.6c.1.3.2.6.4.9-.1-.2-.1-.4-.2-.6 0 .3.1.7.1 1v-.4c0 .3-.1.7-.1 1 0-.1 0-.2.1-.2-.1.3-.2.6-.4.9 0-.1.1-.1.1-.2-.2.2-.4.5-.6.7l.1-.1c-.2.2-.5.4-.7.6.1 0 .1-.1.2-.1-.3.1-.6.2-.9.4.1 0 .1 0 .2-.1-.3 0-.7.1-1 .1h.2c1.9 0 3.8-1.7 3.7-3.7-.1-2-1.6-3.6-3.7-3.7-2.3 0-4.2 1.7-4.5 3.9-.2 1.8.4 3.3 1.5 4.7 1.2 1.4 3.3 2.1 5.1 1.6 1.7-.4 3.2-1.8 4-3.3.8-1.7 1.1-3.4 1.2-5.2 0-.9-.4-2.1-1.1-2.7-.3-.2-.5-.4-.8-.6-.6-.3-1.2-.5-1.9-.5-1.9-.3-3.8.7-5.3 1.8-.6.5-1.1 1.2-1.5 1.8-.6 1.1-.8 2-.9 3.2-.1 1.2.8 2.8 1.9 3.3.5.2 1 .5 1.5.6.5.1 1.1.2 1.6.2h.7c.6 0 1.1-.2 1.6-.3-.3 0-.6.1-.9.1 1.5-.2 2.8-.5 4.2-1.2 1-.5 2-1.3 2.8-2.2 1-1.1 1.7-2.2 2.2-3.5.5-1.3.4-2.7.2-4-.1-.5-.5-1.1-1-1.4-.4-.3-1-.6-1.6-.6-.5 0-.9.1-1.3.4-.7.8-1.3 1.5-1.4 2.1z"></path>
        <path d="M806.8 580.6c9.3 4.9 19.1 9 27.8 15 4.2 2.9 8.1 6.2 11.6 10 3.8 4.1 5.9 8.6 8.7 13.4 3 5 7.8 5.5 13 6.7 4.8 1.1 10.8 3.1 12.1 8.5.5 2.2.3 4.9-1.8 6.3-2.6 1.7-6.1-.1-8.2-1.9-4.9-4-7.6-10.7-8.3-16.8-.4-3.6-6.1-3.6-5.7 0 1.2 9.6 6.6 21.7 17 24.3 9.5 2.4 14.9-7.4 11.5-15.4-1.8-4.3-5.7-7-9.9-8.6-5.2-2-12.8-1.4-15.7-6.8-4.8-9-10.9-16-19.4-21.7-9.7-6.5-20.9-11.3-32-14.6-1-.4-1.7 1.1-.7 1.6z"></path>
        <path d="M864.8 626.7c.7.1-.7-.1 0 0 .2 0 .4.1.6.1.3.1.7.1 1 .2.7.1 1.5.3 2.2.5.7.2 1.4.4 2.1.7.6.2-.6-.3 0 0 .2.1.4.2.5.3l.9.6c.4.3.1.1-.1-.1.1.1.3.2.4.4.3.2.5.5.8.8.5.6-.2-.2-.2-.2l.2.4c.1.1.1.3.2.4.3.5-.3-.8-.2-.4.1.3.1.5.2.8.1.6-.1-1 0-.4v.4c0 .6.1 1.1 0 1.7 0-.3.1-.7.1-1-.1.4-.1.8-.3 1.2 0 .1-.1.2-.1.3l.2-.5c-.1.2-.2.4-.3.5 0 .1-.1.2-.2.2-.2.3.6-.7.4-.5l-.4.4c-.3.4.5-.5.5-.4l-.2.1-.6.3c.3-.1.6-.3 1-.4-.3.1-.6.2-.9.2.4 0 .7-.1 1.1-.1h-1.1c.4 0 .7.1 1.1.1-.4-.1-.7-.2-1.1-.3.3.1.7.3 1 .4-.3-.2-.7-.4-1-.6.3.2.6.4.8.6-.5-.4-.8-.8-1.2-1.2.2.3.4.6.7.8-.6-.7-1-1.5-1.4-2.4.1.3.3.7.4 1-.4-.9-.7-1.8-.9-2.8-.3-1.4-1.6-2.6-2.9-2.9-3.1-.8-5.9.6-7.6 3.1-1.3 1.8-1.8 4.5-1.1 6.7.9 2.9 3.6 5 6.6 4.8 3.2-.2 5.5-2.5 6.7-5.3 1.2-3.1 0-6.6-2.7-8.3-1.8-1.2-4.6-.4-5.7 1.5-.5 1-.8 2.1-.4 3.2s1 1.8 1.9 2.5l.1.1c-.3-.2-.6-.4-.8-.6.1.1.3.2.4.4-.2-.3-.4-.6-.7-.8.1.2.2.3.3.5-.1-.3-.3-.7-.4-1 .1.2.1.4.2.6 0-.4-.1-.7-.1-1.1v1c.1-.4.1-.7.2-1.1-.1.4-.2.7-.3 1 .1-.3.3-.7.4-1-.2.3-.3.6-.6.9.2-.3.4-.6.7-.9-.2.2-.4.5-.7.7.3-.2.6-.4.9-.7-.2.2-.5.3-.8.5.3-.1.7-.3 1-.4-.2.1-.4.1-.6.2.4-.1.7-.1 1.1-.2h-.6c.4.1.7.1 1.1.2-.2 0-.3-.1-.5-.1.3.1.7.3 1 .4l-.6-.3c.3.2.6.4.9.7-.2-.1-.3-.3-.4-.4.2.3.4.6.7.9-.1-.2-.2-.3-.3-.5.1.3.3.7.4 1-.1-.2-.2-.4-.2-.7.1.4.1.7.2 1.1v-1c-.1.4-.1.7-.2 1.1.1-.4.2-.8.3-1.1-.1.3-.3.7-.4 1 .2-.4.3-.7.6-1-.2.3-.4.6-.7.9l.6-.6c-.3.2-.6.4-.9.7.2-.1.4-.3.6-.4-.3.1-.7.3-1 .4.2-.1.4-.1.6-.2-.4.1-.7.1-1.1.2h.6c-.4-.1-.7-.1-1.1-.2.1 0 .3 0 .4.1l-2.9-2.9c.8 3.4 2.5 6.6 5.4 8.7 3.1 2.2 7.4 1.9 10.1-.7 2.4-2.3 3-5.7 2.5-8.9-.2-1.3-.8-2.6-1.6-3.6-1-1.5-2.4-2.6-4-3.5-3.3-1.7-7-2.1-10.6-2.4-1.6-.1-3 1.4-3 3 0 .8.3 1.6.9 2.1.4.2 1 .4 1.9.5z"></path>
        <path d="M648.6 558.1c21.8-8.1 40.9-21.2 55.5-39.5 7.2-9.1 13.3-19 18-29.6 2.4-5.4 3.9-11.3 6.4-16.6 3-6.2 8.7-8.3 14.2-11.8 4.3-2.8 7.7-6.4 8.7-11.5.9-4.6-.4-9.2-4.7-11.4-.7-.4-1.9-.5-2.6 0-9.3 7-15.5 16.7-17.1 28.3-.5 4 5 4.8 5.5.7 1.1-9.7 6.3-18.9 14.2-24.6h-2.6c6.9 3.9-1.5 12.2-5.4 14.4-5.4 3.1-11 5.6-14.4 11.1-3.6 5.8-5 12.9-7.7 19.1-2.6 5.9-5.7 11.6-9.1 17-14.2 22.3-35.7 41.3-60 52-1.2.6-.3 3 1.1 2.4z"></path>
        <path d="M742.1 443.3c-.5 1.1-1.1 2.2-1.8 3.3-.3.5-.7 1.1-1 1.6-.2.3-.4.5-.6.8l-.3.4s.4-.6 0 0c-1.6 2-3.4 3.8-5.3 5.4.6-.3 1.1-.6 1.7-1-.8.3-1.5.6-2.2 1.1-.4.3-.9.7-1.3 1.1-.8.6-1.2 2-1.2 2.9 0 1 .5 2.2 1.2 2.9 1.7 1.6 4.2 1.6 5.9 0 .3-.3.6-.5.8-.8.3-.3.6-.7.8-1 0-.1.1-.2.1-.3.1-.2.1-.1-.1.1-.5.4 0 0 .1-.2l.4-.4c.2-.3.5-.5.7-.8 1.1-1.4 2.1-2.8 3.1-4.2 1.7-2.7 3.1-5.6 4.2-8.6.5-1.3-.4-2.8-1.6-3.3-1.3-.6-3-.2-3.6 1z"></path>
    </g>
</svg>